<?xml version="1.0" encoding="UTF-8" standalone="no"?>
<!DOCTYPE svg PUBLIC "-//W3C//DTD SVG 1.1//EN" "http://www.w3.org/Graphics/SVG/1.1/DTD/svg11.dtd">
<svg version="1.1" xmlns="http://www.w3.org/2000/svg" xmlns:xlink="http://www.w3.org/1999/xlink" preserveAspectRatio="xMidYMid meet" viewBox="-0.4366197183098599 -0.21126760563380387 102.8169014084507 136.92957746478874" width="98.82" height="132.93"><defs><path d="M20.79 133.72C9.62 133.72 0.56 124.66 0.56 113.49C0.56 104.25 0.56 30.26 0.56 21.01C0.56 9.85 9.62 0.79 20.79 0.79C24.17 0.79 41.07 0.79 71.49 0.79L99.38 28.82C99.38 79.62 99.38 107.85 99.38 113.49C99.38 124.66 90.32 133.72 79.15 133.72C67.48 133.72 26.63 133.72 20.79 133.72Z" id="b4C87Ckn0Q"></path><path d="M99.38 28.82C86.09 28.82 78.7 28.82 77.23 28.82C74.08 28.82 71.54 26.28 71.54 23.14C71.53 21.65 71.52 14.2 71.49 0.79" id="a9Cos2Y8p"></path><path d="M34.51 79.8L47.3 93.24L62.96 64.72L81.86 101.42L19.93 101.42L34.51 79.8Z" id="f1pO7KcCVU"></path><path d="M28.39 68.32C25.9 68.32 23.89 66.31 23.89 63.82C23.89 61.34 25.9 59.32 28.39 59.32C30.87 59.32 32.89 61.34 32.89 63.82C32.89 66.31 30.87 68.32 28.39 68.32Z" id="eUaoQdHQC"></path></defs><g><g><use xlink:href="#b4C87Ckn0Q" opacity="1" fill="#00ab54" fill-opacity="1"></use><g><use xlink:href="#b4C87Ckn0Q" opacity="1" fill-opacity="0" stroke="#000000" stroke-width="1" stroke-opacity="0"></use></g></g><g><use xlink:href="#a9Cos2Y8p" opacity="1" fill="#ffffff" fill-opacity="1"></use><g><use xlink:href="#a9Cos2Y8p" opacity="1" fill-opacity="0" stroke="#000000" stroke-width="1" stroke-opacity="0"></use></g></g><g><use xlink:href="#f1pO7KcCVU" opacity="1" fill="#ffffff" fill-opacity="1"></use><g><use xlink:href="#f1pO7KcCVU" opacity="1" fill-opacity="0" stroke="#000000" stroke-width="1" stroke-opacity="0"></use></g></g><g><use xlink:href="#eUaoQdHQC" opacity="1" fill="#ffffff" fill-opacity="1"></use><g><use xlink:href="#eUaoQdHQC" opacity="1" fill-opacity="0" stroke="#000000" stroke-width="1" stroke-opacity="0"></use></g></g></g></svg>