<?xml version="1.0" encoding="UTF-8" standalone="no"?>
<!DOCTYPE svg PUBLIC "-//W3C//DTD SVG 1.1//EN" "http://www.w3.org/Graphics/SVG/1.1/DTD/svg11.dtd">
<svg version="1.1" xmlns="http://www.w3.org/2000/svg" xmlns:xlink="http://www.w3.org/1999/xlink" preserveAspectRatio="xMidYMid meet" viewBox="-0.6117708333333334 -0.32114583333333346 102.170625 136.03020833333335" width="98.17" height="132.03"><defs><path d="M20.49 132.71C9.39 132.71 0.39 123.72 0.39 112.62C0.39 103.44 0.39 29.95 0.39 20.77C0.39 9.67 9.39 0.68 20.49 0.68C23.85 0.68 40.63 0.68 70.85 0.68L98.56 28.51C98.56 78.98 98.56 107.01 98.56 112.62C98.56 123.72 89.55 132.71 78.46 132.71C66.86 132.71 26.29 132.71 20.49 132.71Z" id="a4reYdCUF"></path><path d="M98.56 28.53C85.35 28.53 78.01 28.53 76.54 28.53C73.43 28.53 70.89 25.99 70.89 22.87C70.89 21.39 70.88 14 70.85 0.68" id="flfDv6AZ9"></path><path d="M69.06 48.7C66.22 49.07 43.51 52.05 40.68 52.42C39.9 52.52 39.3 53.2 39.3 53.99C39.3 54.36 39.3 56.23 39.3 59.59L39.3 61.87C39.3 75.53 39.3 83.12 39.3 84.64C37.46 83.03 34.97 82.03 32.21 82.03C26.56 82.03 21.96 86.2 21.96 91.31C21.96 96.44 26.56 100.61 32.21 100.61C37.86 100.61 42.46 96.44 42.46 91.31C42.46 89.44 42.46 80.09 42.46 63.26L67.69 59.93C67.69 69.78 67.69 75.24 67.69 76.34C65.9 74.81 63.51 73.87 60.86 73.87C55.36 73.87 50.89 77.93 50.89 82.92C50.89 87.9 55.36 91.96 60.86 91.96C66.38 91.96 70.85 87.9 70.85 82.92C70.85 81.26 70.85 73 70.85 58.13L70.85 55.86C70.85 52.49 70.85 50.62 70.85 50.25C70.85 49.81 70.64 49.36 70.31 49.07C69.96 48.77 69.51 48.63 69.06 48.7Z" id="e1F7LHEk9"></path></defs><g><g><use xlink:href="#a4reYdCUF" opacity="1" fill="#9954a1" fill-opacity="1"></use><g><use xlink:href="#a4reYdCUF" opacity="1" fill-opacity="0" stroke="#000000" stroke-width="1" stroke-opacity="0"></use></g></g><g><use xlink:href="#flfDv6AZ9" opacity="1" fill="#ffffff" fill-opacity="1"></use><g><use xlink:href="#flfDv6AZ9" opacity="1" fill-opacity="0" stroke="#000000" stroke-width="1" stroke-opacity="0"></use></g></g><g><use xlink:href="#e1F7LHEk9" opacity="1" fill="#ffffff" fill-opacity="1"></use><g><use xlink:href="#e1F7LHEk9" opacity="1" fill-opacity="0" stroke="#000000" stroke-width="1" stroke-opacity="0"></use></g></g></g></svg>