<?xml version="1.0" encoding="UTF-8" standalone="no"?>
<!DOCTYPE svg PUBLIC "-//W3C//DTD SVG 1.1//EN" "http://www.w3.org/Graphics/SVG/1.1/DTD/svg11.dtd">
<svg version="1.1" xmlns="http://www.w3.org/2000/svg" xmlns:xlink="http://www.w3.org/1999/xlink" preserveAspectRatio="xMidYMid meet" viewBox="-0.2900000000000009 -0.79 74.85000000000001 99.30000000000003" width="70.85" height="95.3"><defs><path d="M15.22 95.51C7.21 95.51 0.71 89.02 0.71 81.01C0.71 74.38 0.71 21.34 0.71 14.71C0.71 6.7 7.21 0.21 15.22 0.21C17.64 0.21 29.76 0.21 51.56 0.21L71.56 20.3C71.56 56.73 71.56 76.96 71.56 81.01C71.56 89.02 65.07 95.51 57.06 95.51C48.69 95.51 19.4 95.51 15.22 95.51Z" id="d1FcvMPjvU"></path><path d="M71.56 20.3C62.03 20.3 56.74 20.3 55.68 20.3C53.43 20.3 51.6 18.48 51.6 16.23C51.6 15.16 51.58 9.82 51.56 0.21" id="c3gQSDxTMq"></path><path d="M27.91 38.99C27.49 38.7 26.92 39 26.92 39.51C26.92 41.95 26.92 61.43 26.92 63.87C26.92 64.39 27.49 64.69 27.91 64.39C29.66 63.17 43.62 53.43 45.36 52.21C45.72 51.96 45.72 51.43 45.36 51.17C41.87 48.73 29.66 40.21 27.91 38.99Z" id="c4nmU3oNn"></path></defs><g><g><use xlink:href="#d1FcvMPjvU" opacity="1" fill="#809bbe" fill-opacity="1"></use><g><use xlink:href="#d1FcvMPjvU" opacity="1" fill-opacity="0" stroke="#000000" stroke-width="1" stroke-opacity="0"></use></g></g><g><use xlink:href="#c3gQSDxTMq" opacity="1" fill="#ffffff" fill-opacity="1"></use><g><use xlink:href="#c3gQSDxTMq" opacity="1" fill-opacity="0" stroke="#000000" stroke-width="1" stroke-opacity="0"></use></g></g><g><use xlink:href="#c4nmU3oNn" opacity="1" fill="#e6eaf1" fill-opacity="1"></use><g><use xlink:href="#c4nmU3oNn" opacity="1" fill-opacity="0" stroke="#000000" stroke-width="1" stroke-opacity="0"></use></g></g></g></svg>