<?xml version="1.0" encoding="UTF-8" standalone="no"?>
<!DOCTYPE svg PUBLIC "-//W3C//DTD SVG 1.1//EN" "http://www.w3.org/Graphics/SVG/1.1/DTD/svg11.dtd">
<svg version="1.1" xmlns="http://www.w3.org/2000/svg" xmlns:xlink="http://www.w3.org/1999/xlink" preserveAspectRatio="xMidYMid meet" viewBox="-0.2900000000000009 -0.08000000000000185 74.85000000000001 99.31" width="70.85" height="95.31"><defs><path d="M15.22 96.23C7.21 96.23 0.71 89.74 0.71 81.73C0.71 75.1 0.71 22.06 0.71 15.43C0.71 7.42 7.21 0.92 15.22 0.92C17.64 0.92 29.76 0.92 51.56 0.92L71.56 21.02C71.56 57.45 71.56 77.68 71.56 81.73C71.56 89.74 65.07 96.23 57.06 96.23C48.69 96.23 19.4 96.23 15.22 96.23Z" id="cOXjQdzJc"></path><path d="M71.56 21.02C62.03 21.02 56.74 21.02 55.68 21.02C53.43 21.02 51.6 19.2 51.6 16.95C51.6 15.88 51.58 10.54 51.56 0.92" id="a1LtpjEt05"></path><path d="M34.67 45.33C36.35 49.98 40.48 56.43 46.47 60.05C50.28 59.65 60.74 57.49 63.02 61.2C63.6 62.15 63.29 63.33 63.08 64.06C63.11 63.88 63.2 62.54 60.49 61.69C58.36 61.02 53.44 61.33 48.66 61.84C53.83 65.1 60.31 67.47 63.08 64.06C62.65 65.61 61.16 66.8 60.22 67.16C56.81 68.47 51.8 67.44 44.31 62.36C37.47 63.39 32.64 64.88 26.65 66.86C21.2 77.47 15.79 82.16 11.93 80.73C11.44 80.55 11.01 80.36 10.74 80.15C5.69 76.35 14.09 71.27 20.56 68.11C20.35 68.44 19.89 68.96 19.5 69.38C11.84 74.31 11.11 78.27 11.23 79.63C17.04 78.23 28.9 57.55 32.36 47.09C31.82 45.21 28.26 33.93 29.96 30.09C30.57 28.76 32.09 27.9 33.52 27.72C34.7 27.57 36.1 28.6 36.68 30.67C37.9 34.99 36.23 39.34 34.67 45.33ZM34.1 43.23C35.62 37.73 38.35 31.74 33.94 29.21C31.69 31.77 33.09 39.67 34.1 43.23ZM27.01 65.64C32.64 63.42 36.56 61.93 42.34 60.87C38.08 57.04 35.5 52.87 33.37 48.61C31.85 54.09 28.68 62.39 27.01 65.64Z" id="a3oT8kqmAm"></path></defs><g><g><use xlink:href="#cOXjQdzJc" opacity="1" fill="#ee3e2c" fill-opacity="1"></use><g><use xlink:href="#cOXjQdzJc" opacity="1" fill-opacity="0" stroke="#000000" stroke-width="1" stroke-opacity="0"></use></g></g><g><use xlink:href="#a1LtpjEt05" opacity="1" fill="#ffffff" fill-opacity="1"></use><g><use xlink:href="#a1LtpjEt05" opacity="1" fill-opacity="0" stroke="#000000" stroke-width="1" stroke-opacity="0"></use></g></g><g><use xlink:href="#a3oT8kqmAm" opacity="1" fill="#ffffff" fill-opacity="1"></use><g><use xlink:href="#a3oT8kqmAm" opacity="1" fill-opacity="0" stroke="#000000" stroke-width="1" stroke-opacity="0"></use></g></g></g></svg>