<?xml version="1.0" encoding="UTF-8" standalone="no"?>
<!DOCTYPE svg PUBLIC "-//W3C//DTD SVG 1.1//EN" "http://www.w3.org/Graphics/SVG/1.1/DTD/svg11.dtd">
<svg version="1.1" xmlns="http://www.w3.org/2000/svg" xmlns:xlink="http://www.w3.org/1999/xlink" preserveAspectRatio="xMidYMid meet" viewBox="-0.08531250000000057 -0.7090625000000017 102.17062500000002 136.0302083333334" width="98.17" height="132.03"><defs><path d="M21.02 132.32C9.92 132.32 0.91 123.33 0.91 112.23C0.91 103.05 0.91 29.56 0.91 20.38C0.91 9.28 9.92 0.29 21.02 0.29C24.37 0.29 41.16 0.29 71.36 0.29L99.09 28.12C99.09 78.59 99.09 106.63 99.09 112.23C99.09 123.33 90.08 132.32 78.98 132.32C67.39 132.32 26.81 132.32 21.02 132.32Z" id="b8SRuv0Qs"></path><path d="M99.09 28.12C85.88 28.12 78.54 28.12 77.07 28.12C73.95 28.12 71.42 25.6 71.42 22.49C71.41 21.01 71.4 13.61 71.36 0.29" id="c4Bnb6en1D"></path><path d="M75.06 71.1C75.06 85.22 63.44 96.84 49.32 96.84C35.2 96.84 23.58 85.22 23.58 71.1C23.58 56.98 35.2 45.36 49.32 45.36C49.32 47.07 49.32 55.65 49.32 71.1C64.77 71.1 73.35 71.1 75.06 71.1Z" id="b1xFLp71uI"></path><path d="M53.45 41.31C60.28 41.31 66.82 44.03 71.65 48.85C76.48 53.68 79.19 60.22 79.19 67.05C77.47 67.05 68.89 67.05 53.45 67.05C53.45 51.61 53.45 43.03 53.45 41.31Z" id="i1OSQwt5ZH"></path></defs><g><g><use xlink:href="#b8SRuv0Qs" opacity="1" fill="#ee3e2c" fill-opacity="1"></use><g><use xlink:href="#b8SRuv0Qs" opacity="1" fill-opacity="0" stroke="#000000" stroke-width="1" stroke-opacity="0"></use></g></g><g><use xlink:href="#c4Bnb6en1D" opacity="1" fill="#ffffff" fill-opacity="1"></use><g><use xlink:href="#c4Bnb6en1D" opacity="1" fill-opacity="0" stroke="#000000" stroke-width="1" stroke-opacity="0"></use></g></g><g><use xlink:href="#b1xFLp71uI" opacity="1" fill="#ffffff" fill-opacity="1"></use><g><use xlink:href="#b1xFLp71uI" opacity="1" fill-opacity="0" stroke="#000000" stroke-width="1" stroke-opacity="0"></use></g></g><g><use xlink:href="#i1OSQwt5ZH" opacity="1" fill="#ffffff" fill-opacity="1"></use><g><use xlink:href="#i1OSQwt5ZH" opacity="1" fill-opacity="0" stroke="#000000" stroke-width="1" stroke-opacity="0"></use></g></g></g></svg>