<?xml version="1.0" encoding="UTF-8" standalone="no"?>
<!DOCTYPE svg PUBLIC "-//W3C//DTD SVG 1.1//EN" "http://www.w3.org/Graphics/SVG/1.1/DTD/svg11.dtd">
<svg version="1.1" xmlns="http://www.w3.org/2000/svg" xmlns:xlink="http://www.w3.org/1999/xlink" preserveAspectRatio="xMidYMid meet" viewBox="0.4411458333333331 -1.1108333333333333 102.170625 136.04406250000002" width="98.17" height="132.04"><defs><path d="M21.54 131.93C10.45 131.93 1.44 122.94 1.44 111.84C1.44 102.66 1.44 29.18 1.44 19.99C1.44 8.89 10.45 -0.11 21.54 -0.11C24.9 -0.11 41.68 -0.11 71.89 -0.11L99.61 27.74C99.61 78.2 99.61 106.24 99.61 111.84C99.61 122.94 90.61 131.93 79.51 131.93C67.92 131.93 27.34 131.93 21.54 131.93Z" id="d7ohoD2ZW4"></path><path d="M99.61 27.74C86.4 27.74 79.07 27.74 77.6 27.74C74.48 27.74 71.95 25.21 71.95 22.1C71.94 20.62 71.92 13.21 71.89 -0.11" id="bMf9QpuBb"></path><path d="M18.44 51.39L82.61 51.39" id="b56xHSh6l"></path><path d="M18.44 66.32L82.61 66.32" id="a41QnoLcH"></path><path d="M18.44 81.27L82.61 81.27" id="bjHbKKfL"></path><path d="M18.44 96.2L50.53 96.2" id="a6oKlosgk1"></path></defs><g><g><use xlink:href="#d7ohoD2ZW4" opacity="1" fill="#5380c0" fill-opacity="1"></use><g><use xlink:href="#d7ohoD2ZW4" opacity="1" fill-opacity="0" stroke="#000000" stroke-width="1" stroke-opacity="0"></use></g></g><g><use xlink:href="#bMf9QpuBb" opacity="1" fill="#ffffff" fill-opacity="1"></use><g><use xlink:href="#bMf9QpuBb" opacity="1" fill-opacity="0" stroke="#000000" stroke-width="1" stroke-opacity="0"></use></g></g><g><use xlink:href="#b56xHSh6l" opacity="1" fill="#000000" fill-opacity="0"></use><g><use xlink:href="#b56xHSh6l" opacity="1" fill-opacity="0" stroke="#ffffff" stroke-width="3" stroke-opacity="1"></use></g></g><g><use xlink:href="#a41QnoLcH" opacity="1" fill="#000000" fill-opacity="0"></use><g><use xlink:href="#a41QnoLcH" opacity="1" fill-opacity="0" stroke="#ffffff" stroke-width="3" stroke-opacity="1"></use></g></g><g><use xlink:href="#bjHbKKfL" opacity="1" fill="#000000" fill-opacity="0"></use><g><use xlink:href="#bjHbKKfL" opacity="1" fill-opacity="0" stroke="#ffffff" stroke-width="3" stroke-opacity="1"></use></g></g><g><use xlink:href="#a6oKlosgk1" opacity="1" fill="#000000" fill-opacity="0"></use><g><use xlink:href="#a6oKlosgk1" opacity="1" fill-opacity="0" stroke="#ffffff" stroke-width="3" stroke-opacity="1"></use></g></g></g></svg>