<?xml version="1.0" encoding="UTF-8" standalone="no"?>
<!DOCTYPE svg PUBLIC "-//W3C//DTD SVG 1.1//EN" "http://www.w3.org/Graphics/SVG/1.1/DTD/svg11.dtd">
<svg version="1.1" xmlns="http://www.w3.org/2000/svg" xmlns:xlink="http://www.w3.org/1999/xlink" preserveAspectRatio="xMidYMid meet" viewBox="0.247187499999999 -0.7090625000000017 102.17062500000002 136.0302083333334" width="98.17" height="132.03"><defs><path d="M21.35 132.32C10.25 132.32 1.25 123.33 1.25 112.23C1.25 103.05 1.25 29.56 1.25 20.38C1.25 9.28 10.25 0.29 21.35 0.29C24.71 0.29 41.49 0.29 71.71 0.29L99.42 28.12C99.42 78.59 99.42 106.63 99.42 112.23C99.42 123.33 90.41 132.32 79.32 132.32C67.72 132.32 27.15 132.32 21.35 132.32Z" id="c2T5jN8IC4"></path><path d="M99.42 28.12C86.21 28.12 78.87 28.12 77.4 28.12C74.29 28.12 71.75 25.6 71.75 22.49C71.75 21.01 71.73 13.61 71.71 0.29" id="bfFZbkFb3"></path><path d="M42.38 6.72L42.38 0.29L48.82 0.29L48.82 6.72L42.38 6.72Z" id="b26GJqBssA"></path><path d="M48.82 13.16L48.82 6.72L55.26 6.72L55.26 13.16L48.82 13.16Z" id="cm0Qkwt5g"></path><path d="M42.38 19.6L42.38 13.16L48.82 13.16L48.82 19.6L42.38 19.6Z" id="g1fNuAKoYu"></path><path d="M48.82 26.05L48.82 19.6L55.26 19.6L55.26 26.05L48.82 26.05Z" id="aKJjnFpeu"></path><path d="M42.38 32.49L42.38 26.05L48.82 26.05L48.82 32.49L42.38 32.49Z" id="b2Wfm8I2jt"></path><path d="M48.82 38.92L48.82 32.49L55.26 32.49L55.26 38.92L48.82 38.92Z" id="a1WF2FiBk0"></path><path d="M42.38 45.36L42.38 38.92L48.82 38.92L48.82 45.36L42.38 45.36Z" id="a47F769blq"></path><path d="M48.82 51.8L48.82 45.36L55.26 45.36L55.26 51.8L48.82 51.8Z" id="e1N5xqjmgv"></path><path d="M42.38 58.24L42.38 51.8L48.82 51.8L48.82 58.24L42.38 58.24Z" id="a1i3eQfth5"></path><path d="M48.82 64.67L48.82 58.24L55.26 58.24L55.26 64.67L48.82 64.67Z" id="b9n3mjaM6"></path><path d="M42.38 82.64L42.38 64.67L55.26 64.67L55.26 82.64L42.38 82.64Z" id="a4n3fJ9VCR"></path></defs><g><g><use xlink:href="#c2T5jN8IC4" opacity="1" fill="#596c89" fill-opacity="1"></use><g><use xlink:href="#c2T5jN8IC4" opacity="1" fill-opacity="0" stroke="#000000" stroke-width="1" stroke-opacity="0"></use></g></g><g><use xlink:href="#bfFZbkFb3" opacity="1" fill="#ffffff" fill-opacity="1"></use><g><use xlink:href="#bfFZbkFb3" opacity="1" fill-opacity="0" stroke="#000000" stroke-width="1" stroke-opacity="0"></use></g></g><g><use xlink:href="#b26GJqBssA" opacity="1" fill="#ffffff" fill-opacity="1"></use><g><use xlink:href="#b26GJqBssA" opacity="1" fill-opacity="0" stroke="#000000" stroke-width="1" stroke-opacity="0"></use></g></g><g><use xlink:href="#cm0Qkwt5g" opacity="1" fill="#ffffff" fill-opacity="1"></use><g><use xlink:href="#cm0Qkwt5g" opacity="1" fill-opacity="0" stroke="#000000" stroke-width="1" stroke-opacity="0"></use></g></g><g><use xlink:href="#g1fNuAKoYu" opacity="1" fill="#ffffff" fill-opacity="1"></use><g><use xlink:href="#g1fNuAKoYu" opacity="1" fill-opacity="0" stroke="#000000" stroke-width="1" stroke-opacity="0"></use></g></g><g><use xlink:href="#aKJjnFpeu" opacity="1" fill="#ffffff" fill-opacity="1"></use><g><use xlink:href="#aKJjnFpeu" opacity="1" fill-opacity="0" stroke="#000000" stroke-width="1" stroke-opacity="0"></use></g></g><g><use xlink:href="#b2Wfm8I2jt" opacity="1" fill="#ffffff" fill-opacity="1"></use><g><use xlink:href="#b2Wfm8I2jt" opacity="1" fill-opacity="0" stroke="#000000" stroke-width="1" stroke-opacity="0"></use></g></g><g><use xlink:href="#a1WF2FiBk0" opacity="1" fill="#ffffff" fill-opacity="1"></use><g><use xlink:href="#a1WF2FiBk0" opacity="1" fill-opacity="0" stroke="#000000" stroke-width="1" stroke-opacity="0"></use></g></g><g><use xlink:href="#a47F769blq" opacity="1" fill="#ffffff" fill-opacity="1"></use><g><use xlink:href="#a47F769blq" opacity="1" fill-opacity="0" stroke="#000000" stroke-width="1" stroke-opacity="0"></use></g></g><g><use xlink:href="#e1N5xqjmgv" opacity="1" fill="#ffffff" fill-opacity="1"></use><g><use xlink:href="#e1N5xqjmgv" opacity="1" fill-opacity="0" stroke="#000000" stroke-width="1" stroke-opacity="0"></use></g></g><g><use xlink:href="#a1i3eQfth5" opacity="1" fill="#ffffff" fill-opacity="1"></use><g><use xlink:href="#a1i3eQfth5" opacity="1" fill-opacity="0" stroke="#000000" stroke-width="1" stroke-opacity="0"></use></g></g><g><use xlink:href="#b9n3mjaM6" opacity="1" fill="#ffffff" fill-opacity="1"></use><g><use xlink:href="#b9n3mjaM6" opacity="1" fill-opacity="0" stroke="#000000" stroke-width="1" stroke-opacity="0"></use></g></g><g><use xlink:href="#a4n3fJ9VCR" opacity="1" fill="#ffffff" fill-opacity="1"></use><g><use xlink:href="#a4n3fJ9VCR" opacity="1" fill-opacity="0" stroke="#000000" stroke-width="1" stroke-opacity="0"></use></g></g></g></svg>